<svg xmlns="http://www.w3.org/2000/svg" xmlns:xlink="http://www.w3.org/1999/xlink" width="170" height="170" viewBox="0 0 170 170"><defs><clipPath id="a"><rect width="170" height="170"/></clipPath><filter id="b" x="-0.003" y="88.492" width="170.743" height="72.01" filterUnits="userSpaceOnUse"><feOffset input="SourceAlpha"/><feGaussianBlur stdDeviation="5" result="c"/><feFlood flood-color="#144794" flood-opacity="0.18"/><feComposite operator="in" in2="c"/><feComposite in="SourceGraphic"/></filter><filter id="d" x="0" y="10.009" width="169.537" height="93.968" filterUnits="userSpaceOnUse"><feOffset input="SourceAlpha"/><feGaussianBlur stdDeviation="5" result="e"/><feFlood flood-color="#144794" flood-opacity="0.18"/><feComposite operator="in" in2="e"/><feComposite in="SourceGraphic"/></filter></defs><g clip-path="url(#a)"><rect width="170" height="170" fill="#8cb0b5"/><g transform="translate(0 2.972)"><g transform="matrix(1, 0, 0, 1, 0, -2.97)" filter="url(#b)"><path d="M57.149,23.434H72.957c.269,0,.448-.09.448-.224a.653.653,0,0,0-.224-.358c-2.329-2.015-3.045-2.6-5.418-4.433C66.2,20.165,65.7,20.7,64.136,22.494H40.8a18.327,18.327,0,0,1-3.8-.4l.269,1.567a21.7,21.7,0,0,1,3.538-.224H51.82V53.258H38.7a22.865,22.865,0,0,1-4.433-.448l.269,1.657A30.519,30.519,0,0,1,38.7,54.2H75.464c.358,0,.582-.134.582-.313a1.692,1.692,0,0,0-.313-.493c-2.373-2.017-3.133-2.644-5.553-4.57q-1.881,2.149-3.762,4.433h-9.27Zm67.843,3.179c.313,0,.537-.09.537-.224a.653.653,0,0,0-.224-.358c-1.926-1.657-2.508-2.1-4.478-3.582-1.7,1.836-1.7,1.836-3.045,3.224h-4.433a41.125,41.125,0,0,0,5.866-4.7h.358c1.254,0,1.791-.179,1.791-.582,0-.493-1.388-1.12-6.135-2.866a42.8,42.8,0,0,1-3.582,8.15H109.9v-6.5c1.343-.4,1.7-.627,1.7-.985,0-.627-.627-.716-6.269-1.075.09,1.746.134,2.552.134,4.254v4.3h-3.314V19.09c1.343-.358,1.7-.582,1.7-.985,0-.224-.179-.4-.493-.493-.493-.179-.851-.224-5.821-.582a32.976,32.976,0,0,1,.224,4.389v4.254H87.152a13.505,13.505,0,0,1-3.446-.447l.267,1.611a20.28,20.28,0,0,1,3.179-.224h7.434l-.358.358A11.071,11.071,0,0,1,96.422,31.9a2.219,2.219,0,0,0,.627,1.343H89.436a12.309,12.309,0,0,1-3.269-.4l.269,1.612a14.1,14.1,0,0,1,3-.269h11.956v4.03H92.078a17.594,17.594,0,0,1-3.762-.4l.269,1.612a23.383,23.383,0,0,1,3.493-.269h9.314v4.3H87.958a14.332,14.332,0,0,1-3.448-.4l.224,1.657a16.686,16.686,0,0,1,3.224-.313H97.72a37.257,37.257,0,0,1-4.7,5.06,43.771,43.771,0,0,1-9.9,6.717l.269.537a43.73,43.73,0,0,0,9.27-3.314,33.223,33.223,0,0,0,8.732-6.359v2.732c0,1.03-.134,5.374-.224,7.792,0,.761.224.9,1.7.9,2.732,0,3.314-.179,3.314-1.12-.134-4.03-.134-5.642-.134-7.792V45.063c3.09,4.747,6,7.434,10.3,9.538a23.79,23.79,0,0,0,4.971,1.791c.358,0,.4-.045.672-.806.851-2.329,1.567-3.179,3.135-3.851v-.627a36.052,36.052,0,0,1-13.3-2.956,16.725,16.725,0,0,1-5.2-3.762h17.151c.358,0,.582-.09.582-.269a.542.542,0,0,0-.269-.4c-1.881-1.567-2.463-2.06-4.478-3.538-1.388,1.388-1.836,1.791-3.269,3.269h-10.3v-4.3h13.7c.313,0,.537-.09.537-.269a.627.627,0,0,0-.269-.4c-1.746-1.478-2.284-1.881-4.165-3.269-1.254,1.254-1.657,1.657-2.956,3h-6.851v-4.03h16.614c.269,0,.493-.09.493-.224s-.09-.224-.224-.358a55.807,55.807,0,0,0-4.433-3.448l-3.09,3.09h-6.986c1.254-.761,1.254-.761,5.015-3.4a1.008,1.008,0,0,0,.313.045c1.209,0,1.746-.179,1.746-.627,0-.493,0-.493-5.777-2.642Zm-15.763,0a22.7,22.7,0,0,1-2.911,6.628H99.243a2.948,2.948,0,0,0,1.523-2.463c0-1.478-1.657-2.6-6.18-4.165ZM87.958,18.06a13.8,13.8,0,0,1,3,5.687c.269,1.254.716,1.791,1.478,1.791,1.3,0,2.776-1.7,2.776-3.179,0-1.791-1.746-2.956-6.9-4.657ZM172.19,42.107c.269,0,.493-.134.493-.313a.627.627,0,0,0-.269-.4c-2.284-1.836-3.045-2.329-5.463-4.03-1.433,1.612-1.881,2.1-3.314,3.806H137.62a12.755,12.755,0,0,1-3.269-.4l.358,1.612a12.616,12.616,0,0,1,2.776-.269h8.956a64.122,64.122,0,0,1-3.762,9.986H141.2a43.352,43.352,0,0,1-5.06-.224c1.657,7.165,1.657,7.165,2.15,7.165.448,0,.672-.448.985-1.791,9.135-1.433,17.644-3.135,22.211-4.344.627-.179.627-.179,1.03-.313a38.138,38.138,0,0,1,1.791,4.254c.493,1.164.672,1.388,1.254,1.388,1.523,0,3.135-2.418,3.135-4.747,0-1.343-.94-2.6-3.269-4.478a40.382,40.382,0,0,0-8.24-4.926l-.358.358a27.744,27.744,0,0,1,4.971,6.851c-4.523.4-8.732.627-17.061.761a72.636,72.636,0,0,0,8.6-9.941ZM132.47,38.3a44.871,44.871,0,0,0,21.808-17.688,23.355,23.355,0,0,0,3.851,6.717,31.63,31.63,0,0,0,8.911,8.1,14.026,14.026,0,0,0,3.851,1.791c.269,0,.4-.134.537-.582.134-.358.358-1.075.537-1.478A5.4,5.4,0,0,1,175.01,31.9v-.5a33.194,33.194,0,0,1-11.061-3.359,22.264,22.264,0,0,1-9-7.792c1.478-.313,1.836-.493,1.836-.9,0-.493-.985-.806-4.209-1.433-.806-.179-2.015-.4-3.538-.716-1.075,3.359-3.09,6.762-6.493,10.882A53.867,53.867,0,0,1,132.156,37.8Zm10.165-3.224a15.789,15.789,0,0,1,2.687-.224h17.509q.537,0,.537-.269c0-.134-.09-.269-.313-.448-2.194-1.746-2.866-2.284-5.06-3.9-1.433,1.523-1.881,2.015-3.269,3.672h-9.135a14.162,14.162,0,0,1-3.314-.358Z" transform="translate(-19.27 86.46)" fill="#fff"/></g><g transform="matrix(1, 0, 0, 1, 0, -2.97)" filter="url(#d)"><path d="M90.742,17.348V19c.138,1.035.483,1.311,1.932,1.311,2.484,0,4.417-.345,5.038-.9a1.4,1.4,0,0,0,.483-1.242V17.9c-.207-7.108-.207-7.66-.207-18.7,1.932-.966,2.553-1.518,2.553-2.07,0-.414-.276-.759-1.035-1.311-2.277-1.725-3.036-2.277-5.521-3.934-1.656,1.587-2.139,2.139-3.727,3.865H78.32V-11.7H106.2c.414,0,.69-.138.69-.414,0-.207-.069-.345-.345-.621-3.381-2.829-4.417-3.658-7.8-6.28-2.346,2.484-3.036,3.243-5.383,5.866H78.32v-4.9c2.07-.69,2.691-1.173,2.691-1.794,0-.966-1.035-1.173-10.489-2.07a40.465,40.465,0,0,1,.552,8.764H50.026a25.9,25.9,0,0,1-5.8-.69l.552,2.553a28.186,28.186,0,0,1,5.245-.414H71.074v7.453H60.239c-3.658-1.725-4.693-2.208-8.212-3.8a100.148,100.148,0,0,1,.345,11.18c0,6.28-.069,8.971-.414,15.734.069,1.38.483,1.656,2.277,1.656,2.277,0,4.072-.276,4.693-.759.345-.276.483-.621.552-1.38V17.348h7.66A67.771,67.771,0,0,1,42.78,39.017l.414.9A70.733,70.733,0,0,0,57.2,34.049,58.921,58.921,0,0,0,71.14,23.422l-.069,4.762c0,2.553-.276,9.109-.414,12.353.069,1.311.414,1.518,2.553,1.518,2.622,0,4.279-.207,4.9-.69.414-.276.552-.69.552-1.518-.069-2.829-.069-2.829-.345-13.388l-.138-8.419c4.969,9.109,9.8,14.216,18.011,18.978,2.415,1.38,5.245,2.622,6,2.622.414,0,.621-.207.759-.759a15.7,15.7,0,0,1,.759-2.346,8.421,8.421,0,0,1,4.555-4.9v-.759c-8.488-.9-13.526-2.346-19.323-5.452-4.624-2.484-7.591-4.969-9.661-8.074Zm0-1.449H78.32V7.066H90.742Zm0-10.282H78.32V-2.8H90.742ZM71.074,15.9H59.48V7.066H71.074Zm0-10.282H59.48V-2.8H71.074ZM159.82-8.944c-.069-2.07-.069-2.691-.069-3.519,0-.966.069-2.691.138-5.59,1.794-.621,2.346-1.035,2.346-1.656,0-.9-.69-1.035-10.351-1.863a57.539,57.539,0,0,1,.552,8.212c0,1.449.069,2.415.207,4.417H132.975a89.421,89.421,0,0,0-8.764-4.624c.207,4.21.276,6,.276,11.111,0,13.871-.414,20.979-1.518,27.328a55.816,55.816,0,0,1-5.452,16.493l.621.414a43.8,43.8,0,0,0,5.59-6.487A42.9,42.9,0,0,0,130.215,20.8c.759-3.519,1.173-6.625,1.587-14.354h9.937a109.581,109.581,0,0,1-1.311,15.389c-.414,2.346-.9,2.829-2.415,2.829-1.1,0-2.553-.138-7.66-.552l-.138.828c4.486,1.518,5.728,2.829,5.8,6.211,0,.966.276,1.242,1.035,1.242a11.075,11.075,0,0,0,2.07-.207c3.174-.552,5.383-1.794,6.556-3.8,1.587-2.691,2.484-8.281,3.243-20.634,1.794-.966,2.208-1.38,2.208-1.863,0-.276-.207-.621-.759-1.1-2.415-1.794-3.174-2.346-5.59-4-1.587,1.794-2.07,2.346-3.588,4.21h-9.316c.207-3.588.276-6,.276-12.491h20.565c.9,13.526,2.553,21.807,5.8,28.915-5.314,7.8-10.765,12.9-19.944,18.84l.345.69c7.246-2.553,10.834-4.486,15.872-8.212a73.822,73.822,0,0,0,6.694-5.935A44.322,44.322,0,0,0,167.2,33.98c4.348,4.417,7.867,6.694,10.489,6.694a3.94,3.94,0,0,0,3.8-4.072,4.148,4.148,0,0,0-.966-2.691c-1.311-1.38-1.311-1.38-1.311-2a7.084,7.084,0,0,1,.276-1.725l2.829-12.767-.759-.207a106.182,106.182,0,0,1-7.108,12.9c-4.486-3.8-5.935-5.452-8.212-9.109,3.8-5.383,5.866-9.523,8.9-17.873,2.346-.345,3.036-.69,3.036-1.38,0-.828-1.794-1.518-9.868-3.865-.552,4.762-2.277,9.937-5.383,16.01C161.131,8.584,160.3,2.58,159.889-7.5h21.324c.345,0,.621-.138.621-.345a1.562,1.562,0,0,0-.276-.621c-3.1-2.553-4.072-3.312-7.246-5.728-1.863,2.415-2.415,3.174-4,5.245Zm3.243-10.627a14.336,14.336,0,0,1,4.072,6.073c.69,1.794.759,2,1.173,2.346a2.182,2.182,0,0,0,1.173.414c1.932,0,3.727-2.208,3.727-4.486,0-1.656-1.1-2.829-3.45-3.658a32.267,32.267,0,0,0-6.487-1.242Z" transform="translate(-27.78 46.92)" fill="#fff"/></g></g></g></svg>